<svg xmlns="http://www.w3.org/2000/svg" viewBox="0 0 800 600" width="800" height="600">
  <style>
    .st0{fill:#BBDEFB;} 
    .st1{fill:#2196F3;} 
    .st2{fill:#FFFFFF;} 
    .st3{fill:#4CAF50;} 
    .st4{fill:#1976D2;} 
    .st5{fill:#C8E6C9;} 
    .st6{fill:#F5F5F5;}
    .st7{fill:#757575;}
    .st8{fill:#212121;}
  </style>
  
  <!-- Background -->
  <rect class="st6" width="800" height="600"/>
  
  <!-- School Building -->
  <rect x="100" y="150" width="600" height="350" class="st2"/>
  <rect x="100" y="150" width="600" height="50" class="st1"/>
  <rect x="350" y="150" width="100" height="350" class="st4"/>
  
  <!-- Windows -->
  <rect x="150" y="220" width="80" height="60" class="st0"/>
  <rect x="150" y="300" width="80" height="60" class="st0"/>
  <rect x="150" y="380" width="80" height="60" class="st0"/>
  
  <rect x="250" y="220" width="80" height="60" class="st0"/>
  <rect x="250" y="300" width="80" height="60" class="st0"/>
  <rect x="250" y="380" width="80" height="60" class="st0"/>
  
  <rect x="470" y="220" width="80" height="60" class="st0"/>
  <rect x="470" y="300" width="80" height="60" class="st0"/>
  <rect x="470" y="380" width="80" height="60" class="st0"/>
  
  <rect x="570" y="220" width="80" height="60" class="st0"/>
  <rect x="570" y="300" width="80" height="60" class="st0"/>
  <rect x="570" y="380" width="80" height="60" class="st0"/>
  
  <!-- Door -->
  <rect x="380" y="380" width="40" height="120" class="st8"/>
  
  <!-- Roof -->
  <polygon points="400,100 50,150 750,150" class="st4"/>
  
  <!-- Flag -->
  <rect x="700" y="100" width="5" height="100" class="st7"/>
  <rect x="705" y="100" width="40" height="30" class="st3"/>
  
  <!-- Trees -->
  <circle cx="50" cy="450" r="40" class="st3"/>
  <rect x="45" y="450" width="10" height="50" class="st8"/>
  
  <circle cx="750" cy="450" r="40" class="st3"/>
  <rect x="745" y="450" width="10" height="50" class="st8"/>
  
  <!-- Path -->
  <rect x="350" y="500" width="100" height="100" class="st7"/>
  
  <!-- School Name -->
  <text x="400" y="185" text-anchor="middle" font-family="Arial" font-size="24" font-weight="bold" class="st2">SCHOOL</text>
  
  <!-- Education Icons -->
  <circle cx="190" y="330" r="15" class="st5"/>
  <circle cx="290" y="330" r="15" class="st5"/>
  <circle cx="510" y="330" r="15" class="st5"/>
  <circle cx="610" y="330" r="15" class="st5"/>
</svg>